<?xml version="1.0" encoding="UTF-8"?>
<svg version="1.1" xmlns="http://www.w3.org/2000/svg" width="512" height="512">
<path d="M0 0 C168.96 0 337.92 0 512 0 C512 168.96 512 337.92 512 512 C343.04 512 174.08 512 0 512 C0 343.04 0 174.08 0 0 Z " fill="#209CEE" transform="translate(0,0)"/>
<path d="M0 0 C22.29468277 19.78411999 22.29468277 19.78411999 23.09852314 30.49493122 C23.1295673 32.12640694 23.13388263 33.75853948 23.11604309 35.39021301 C23.13091807 36.74864721 23.13091807 36.74864721 23.14609355 38.13452452 C23.17294206 41.15230473 23.16430553 44.16889672 23.15551758 47.18676758 C23.16721093 49.35727605 23.18098205 51.52777417 23.19667053 53.69825745 C23.23224002 59.58273333 23.23578864 65.46681494 23.23135972 71.35138154 C23.23016901 76.26924485 23.24362493 81.18702649 23.25674266 86.10486907 C23.28705985 97.71067734 23.29039886 109.3162848 23.27758789 120.92211914 C23.26490997 132.88184347 23.30007717 144.84076049 23.35847169 156.80033094 C23.40682778 167.08003377 23.42414053 177.3594783 23.41699713 187.63929194 C23.41312165 193.77383783 23.42116888 199.90777582 23.45960426 206.04221535 C23.49451406 211.81366117 23.49057445 217.58381819 23.45726585 223.35526085 C23.45150232 225.46794299 23.45926509 227.58071404 23.48187256 229.69328308 C23.67370424 248.9785205 23.67370424 248.9785205 16.59125805 256.92946911 C15.88825227 257.63723649 15.18524649 258.34500387 14.4609375 259.07421875 C13.03875778 260.75707511 11.62146164 262.44408106 10.2109375 264.13671875 C-4.81951221 280.37888567 -22.98109465 289.70767355 -44.2265625 294.88671875 C-45.06888428 295.09377441 -45.91120605 295.30083008 -46.77905273 295.51416016 C-80.20161485 303.19594566 -115.4200142 297.95101731 -144.5390625 280.07421875 C-148.48105707 277.38600048 -152.01605128 274.28498985 -155.5390625 271.07421875 C-156.66441406 270.15962891 -156.66441406 270.15962891 -157.8125 269.2265625 C-182.633566 248.71652375 -195.12182373 215.02605734 -199.5390625 184.07421875 C-199.71042725 183.00075195 -199.88179199 181.92728516 -200.05834961 180.82128906 C-201.95304604 167.41214786 -201.87943999 153.97436245 -201.85473633 140.45605469 C-201.85010944 137.70849213 -201.85702222 134.9613727 -201.87524414 132.21386719 C-201.98221772 115.92710031 -201.57314635 100.11085883 -198.5390625 84.07421875 C-198.24890259 82.46184326 -198.24890259 82.46184326 -197.95288086 80.81689453 C-197.47799796 78.36232822 -196.94472247 75.94009001 -196.3515625 73.51171875 C-196.04182495 72.23639282 -196.04182495 72.23639282 -195.72583008 70.93530273 C-188.08139056 41.09697445 -170.4001197 11.35242334 -143.5390625 -4.92578125 C-142.50652344 -5.57933594 -141.47398437 -6.23289062 -140.41015625 -6.90625 C-100.51562497 -31.45806235 -36.55754128 -31.09317225 0 0 Z " fill="#209CEE" transform="translate(489.5390625,118.92578125)"/>
<path d="M0 0 C12.21 0 24.42 0 37 0 C45.88431918 22.91039542 54.72227584 45.83718433 63.4375 68.8125 C69.55806602 84.94726406 75.69713405 101.0745814 81.875 117.1875 C86.62250835 129.56990245 91.366792 141.95348451 96.09375 154.34375 C96.52560608 155.47571808 96.95746216 156.60768616 97.40240479 157.7739563 C98.2832988 160.08304305 99.16417843 162.39213529 100.04504395 164.70123291 C107.78317597 184.98550841 115.55472467 205.25653261 123.3588562 225.51550293 C130.56719908 244.23195223 137.71034389 262.97273007 144.82275391 281.72583008 C145.19817322 282.71554306 145.57359253 283.70525604 145.96038818 284.72496033 C146.67948199 286.62131897 147.39812718 288.5178478 148.11627197 290.41456604 C149.60924444 294.35426946 151.10777315 298.29114122 152.64111328 302.21533203 C153.10114746 303.39337402 153.56118164 304.57141602 154.03515625 305.78515625 C154.42195557 306.76492432 154.80875488 307.74469238 155.20727539 308.75415039 C156 311 156 311 156 313 C141.81 313 127.62 313 113 313 C110.69 306.4 108.38 299.8 106 293 C95.11 262.805 95.11 262.805 84 232 C40.77 232 -2.46 232 -47 232 C-57.395 260.71 -57.395 260.71 -68 290 C-76 312 -76 312 -77 313 C-78.92667507 313.08748207 -80.85651861 313.10697334 -82.78515625 313.09765625 C-83.95498047 313.09443359 -85.12480469 313.09121094 -86.33007812 313.08789062 C-87.56177734 313.07951172 -88.79347656 313.07113281 -90.0625 313.0625 C-91.91584961 313.05573242 -91.91584961 313.05573242 -93.80664062 313.04882812 C-96.87114117 313.03699608 -99.93554721 313.02051173 -103 313 C-106.63042143 278.50700697 -98.43388255 252.59145683 -84.97216797 221.07421875 C-80.57446515 210.71214598 -76.63999618 200.17481563 -72.67709351 189.64077759 C-70.50965252 183.89251501 -68.31140717 178.15604938 -66.1171875 172.41796875 C-60.83998837 158.59287843 -55.58505996 144.75934619 -50.3324585 130.92489624 C-43.20511207 112.15378584 -36.04650608 93.39471083 -28.87768555 74.6394043 C-24.4102327 62.94875224 -19.95428808 51.25387939 -15.51953125 39.55078125 C-15.07813812 38.38654633 -14.636745 37.2223114 -14.18197632 36.02279663 C-12.07314494 30.46018668 -9.96636625 24.89681631 -7.86328125 19.33203125 C-7.11336964 17.35283109 -6.36337444 15.3736626 -5.61328125 13.39453125 C-5.2747261 12.496241 -4.93617096 11.59795074 -4.58735657 10.67243958 C-4.27404892 9.84701157 -3.96074127 9.02158356 -3.63793945 8.17114258 C-3.36818802 7.45767166 -3.09843658 6.74420074 -2.82051086 6.0091095 C-1.98392786 3.96064562 -0.98955297 1.97910594 0 0 Z " fill="#FDFEFE" transform="translate(103,100)"/>
<path d="M0 0 C6.22849566 5.52711635 12.39641766 11.45480247 17.4609375 18.07421875 C17.87361374 18.5781012 18.28628998 19.08198364 18.71147156 19.60113525 C23.24051064 25.7900237 23.11506986 31.42034462 22.94921875 38.88671875 C22.93860664 40.70091309 22.93860664 40.70091309 22.92778015 42.55175781 C22.89991848 46.3932223 22.83718986 50.23319898 22.7734375 54.07421875 C22.74834425 56.68747887 22.72553289 59.30076196 22.70507812 61.9140625 C22.65438173 68.30180766 22.55650056 74.68635914 22.4609375 81.07421875 C14.2109375 81.07421875 5.9609375 81.07421875 -2.5390625 81.07421875 C-3.3434375 76.58828125 -3.3434375 76.58828125 -4.1640625 72.01171875 C-7.95620447 52.39900977 -15.88839401 34.4131866 -32.1796875 22.07421875 C-50.50588122 10.19802617 -75.61050892 8.94262667 -96.54882812 13.15869141 C-117.4616276 18.34451478 -132.57310503 31.42327343 -143.5390625 49.44921875 C-150.12306089 61.05738769 -154.33372525 73.57345771 -156.9140625 86.63671875 C-157.0697168 87.41345947 -157.22537109 88.1902002 -157.38574219 88.99047852 C-160.17913277 104.70090347 -159.72555299 121.02098578 -159.72436523 136.91552734 C-159.72656411 140.20162693 -159.74483719 143.48739629 -159.76367188 146.7734375 C-159.79452829 158.39525372 -159.35964605 169.5886463 -157.5390625 181.07421875 C-157.34588686 182.57643113 -157.15515337 184.0789635 -156.96875 185.58203125 C-153.31122728 209.43320054 -143.14223405 234.60789911 -123.7890625 249.88671875 C-109.39559376 260.08437277 -94.55524312 263.61641739 -77.1015625 263.44921875 C-75.29075195 263.46662109 -75.29075195 263.46662109 -73.44335938 263.484375 C-54.44195956 263.42337532 -37.41604977 258.23680077 -23.4609375 245.12109375 C-10.3224815 231.58146352 -6.08375878 211.98426311 -2.5390625 194.07421875 C5.7109375 194.07421875 13.9609375 194.07421875 22.4609375 194.07421875 C22.64534401 201.56573321 22.80434573 209.04927759 22.90039062 216.54125977 C22.94044941 219.08547748 22.99491421 221.62951303 23.06445312 224.1730957 C23.16227526 227.84502233 23.20704293 231.51450133 23.2421875 235.1875 C23.28347778 236.31190994 23.32476807 237.43631989 23.36730957 238.59480286 C23.37232376 247.5593042 20.2641274 252.42939067 14.4609375 259.07421875 C13.71968628 259.96212601 12.97843506 260.85003326 12.21472168 261.7648468 C-2.72777885 279.45222961 -22.06735886 289.48493056 -44.2265625 294.88671875 C-45.06888428 295.09377441 -45.91120605 295.30083008 -46.77905273 295.51416016 C-80.20161485 303.19594566 -115.4200142 297.95101731 -144.5390625 280.07421875 C-148.48105707 277.38600048 -152.01605128 274.28498985 -155.5390625 271.07421875 C-156.66441406 270.15962891 -156.66441406 270.15962891 -157.8125 269.2265625 C-182.633566 248.71652375 -195.12182373 215.02605734 -199.5390625 184.07421875 C-199.71042725 183.00075195 -199.88179199 181.92728516 -200.05834961 180.82128906 C-201.95304604 167.41214786 -201.87943999 153.97436245 -201.85473633 140.45605469 C-201.85010944 137.70849213 -201.85702222 134.9613727 -201.87524414 132.21386719 C-201.98221772 115.92710031 -201.57314635 100.11085883 -198.5390625 84.07421875 C-198.24890259 82.46184326 -198.24890259 82.46184326 -197.95288086 80.81689453 C-197.47799796 78.36232822 -196.94472247 75.94009001 -196.3515625 73.51171875 C-196.04182495 72.23639282 -196.04182495 72.23639282 -195.72583008 70.93530273 C-188.08139056 41.09697445 -170.4001197 11.35242334 -143.5390625 -4.92578125 C-142.50652344 -5.57933594 -141.47398437 -6.23289062 -140.41015625 -6.90625 C-100.51562497 -31.45806235 -36.55754128 -31.09317225 0 0 Z " fill="#FDFEFE" transform="translate(489.5390625,118.92578125)"/>
<path d="M0 0 C2.28748737 2.28748737 2.84668577 3.91627879 3.93261719 6.94824219 C4.49607094 8.50803299 4.49607094 8.50803299 5.07090759 10.09933472 C5.47547684 11.23702301 5.88004608 12.3747113 6.296875 13.546875 C6.93472679 15.31878708 6.93472679 15.31878708 7.58546448 17.12649536 C8.5009726 19.6715197 9.41447412 22.21716064 10.32461548 24.76409912 C11.75651634 28.77073751 13.19604978 32.77460306 14.63745117 36.77783203 C14.87635543 37.44139269 15.11525969 38.10495335 15.36140347 38.7886219 C15.84301696 40.12627494 16.3246539 41.46391954 16.80631447 42.80155563 C17.52794905 44.80636913 18.24887724 46.81143545 18.96965027 48.81655884 C22.69924388 59.1885089 26.48597327 69.5384437 30.3125 79.875 C31.39523658 82.80572935 32.47699558 85.7368191 33.55859375 88.66796875 C33.8270813 89.39550858 34.09556885 90.1230484 34.37219238 90.87263489 C37.85161281 100.30416775 41.3222892 109.73886417 44.77426147 119.18048096 C45.50284032 121.17082691 46.23314188 123.16054317 46.96524048 125.14959717 C47.97876496 127.90408315 48.9862131 130.66071805 49.9921875 133.41796875 C50.29766006 134.24412186 50.60313263 135.07027496 50.91786194 135.92146301 C53 141.65767561 53 141.65767561 53 145 C18.02 145 -16.96 145 -53 145 C-47.73401686 129.78715981 -42.46601327 114.62000564 -36.85644531 99.53710938 C-34.16913061 92.30217193 -31.4890143 85.06460044 -28.81640625 77.82421875 C-28.58244518 77.19052242 -28.34848412 76.5568261 -28.10743332 75.90392685 C-24.28416803 65.54248691 -20.51677864 55.16149759 -16.77734375 44.76953125 C-16.52296854 44.06279455 -16.26859333 43.35605785 -16.00650978 42.62790489 C-13.51726292 35.71054233 -11.03257682 28.79156198 -8.5555048 21.86983013 C-7.862971 19.93576808 -7.16927373 18.00212791 -6.47511292 16.06864929 C-5.62475038 13.69932494 -4.77669116 11.32917227 -3.93125916 8.95808411 C-3.55787918 7.91875229 -3.18449921 6.87942047 -2.79980469 5.80859375 C-2.47453796 4.89907959 -2.14927124 3.98956543 -1.81414795 3.05249023 C-1 1 -1 1 0 0 Z " fill="#219CEE" transform="translate(121,152)"/>
<path d="M0 0 C0.33 0 0.66 0 1 0 C1 13.53 1 27.06 1 41 C-12.53 41 -26.06 41 -40 41 C-36.77794772 39.38897386 -33.66489916 38.09649079 -30.3125 36.8125 C-17.71232801 31.5611525 -8.22889841 22.19948407 -2.96484375 9.59765625 C-1.78548854 6.42246916 -0.80417774 3.28981803 0 0 Z " fill="#000000" transform="translate(511,471)"/>
<path d="M0 0 C1.61102614 3.22205228 2.90350921 6.33510084 4.1875 9.6875 C9.4388475 22.28767199 18.80051593 31.77110159 31.40234375 37.03515625 C34.57753084 38.21451146 37.71018197 39.19582226 41 40 C41 40.33 41 40.66 41 41 C27.47 41 13.94 41 0 41 C0 27.47 0 13.94 0 0 Z " fill="#000000" transform="translate(0,471)"/>
<path d="M0 0 C13.53 0 27.06 0 41 0 C41 13.53 41 27.06 41 41 C39.38897386 37.77794772 38.09649079 34.66489916 36.8125 31.3125 C31.5611525 18.71232801 22.19948407 9.22889841 9.59765625 3.96484375 C6.42246916 2.78548854 3.28981803 1.80417774 0 1 C0 0.67 0 0.34 0 0 Z " fill="#000000" transform="translate(471,0)"/>
<path d="M0 0 C13.53 0 27.06 0 41 0 C37.77794772 1.61102614 34.66489916 2.90350921 31.3125 4.1875 C18.71232801 9.4388475 9.22889841 18.80051593 3.96484375 31.40234375 C2.78548854 34.57753084 1.80417774 37.71018197 1 41 C0.67 41 0.34 41 0 41 C0 27.47 0 13.94 0 0 Z " fill="#000000" transform="translate(0,0)"/>
</svg>
